<svg xmlns="http://www.w3.org/2000/svg" viewBox="0 0 100 144.82"><path d="M88.75,55.32a7.58,7.58,0,0,0-6.44-3.53c-5.7-.2-9.76,4.2-12.26,8.82q-.66,1.23-1.29,2.46A40.48,40.48,0,0,1,62.34,61a74.42,74.42,0,0,1-14.73-8.66A53.23,53.23,0,0,1,33,36.37a2.84,2.84,0,0,0,.52-.52c1.21-1.53,1-3.31.26-5C32.92,28.89,32,27,31,25.11c-.46-.85-1-1.66-1.45-2.5-.92-1.6-1.81-2.84-3.87-2.76a4.61,4.61,0,0,1-.83,0,.89.89,0,0,0-.46,0,27.48,27.48,0,0,1-1.69-3.6,2.51,2.51,0,0,0-3.42-.9,2.57,2.57,0,0,0-.9,3.42c.57,1.29,1.17,2.57,1.79,3.84,0,0-.41.64-.45.73a4.24,4.24,0,0,0-.32,1c-.89,4,1,8.06,3.47,11.12A16.1,16.1,0,0,0,25.6,38.4a3.61,3.61,0,0,0,1.77.71c.42,0,1.09-.26,1.45-.09s.54.86.71,1.14a55.89,55.89,0,0,0,12.62,14.2A74.47,74.47,0,0,0,58.82,64.89c1.44.65,2.91,1.24,4.39,1.76a19.64,19.64,0,0,0,3,1c-.17.27-.33.56-.51.83C64,71,62.12,73.55,60.17,76c-4.37,5.44-9.75,9.46-15.72,13-1.61,1-3.25,1.84-4.94,2.64a19.74,19.74,0,0,1-3.31,1.17c-.38.11-.61-.61-.73-.85a1.53,1.53,0,0,0-1-.88,15.49,15.49,0,0,0-6.29,0A17.09,17.09,0,0,0,20.6,93.8a4.55,4.55,0,0,0-1.16,1c-.22.34-.25.82-.44,1.19-.33.63-1.58.59-2.21.65a18.74,18.74,0,0,1-3.89,0,2.49,2.49,0,0,0-2.5,2.5,2.57,2.57,0,0,0,2.5,2.5,21.38,21.38,0,0,0,6.24-.27l0,0a2.9,2.9,0,0,0,.33.2c.25.12.48.77.65,1a3.23,3.23,0,0,0,2.13,1.15,20.17,20.17,0,0,0,2.45.27,15.77,15.77,0,0,0,7.13-1.06c1-.45,1.9-1.16,2.87-1.69s2.62-1.31,3-2.6c.12-.42.1-.88.43-1.21.53-.15,1.06-.31,1.57-.51A65.46,65.46,0,0,0,55.63,87.5c4.6-3.55,8.16-8,11.61-12.6a70.08,70.08,0,0,0,4.16-6.12c1.09.18,2.19.33,3.29.43,5.58.48,11.54-1.64,14-7C89.61,60,90,57.47,88.75,55.32ZM83.6,61a7.63,7.63,0,0,1-5.33,3.17,15.45,15.45,0,0,1-4.4,0A28.65,28.65,0,0,1,76,60.49,8.59,8.59,0,0,1,80.37,57c1.5-.43,3.06-.45,4,.71a.7.7,0,0,1,.17.36c-.05-.27,0,.93,0,.52A5.05,5.05,0,0,1,83.6,61Z" style="fill:#3a3939"/><path d="M23.49,117.55a3.75,3.75,0,0,1,2.06.59,1,1,0,0,1-.11,1.73.91.91,0,0,1-1-.11,2,2,0,0,0-1-.22,1.87,1.87,0,0,0-.93.26,2.38,2.38,0,0,0-.81,2.1v0a2.47,2.47,0,0,0,.78,2.18,1.77,1.77,0,0,0,1,.26,1.82,1.82,0,0,0,1-.26.82.82,0,0,1,1-.11,1,1,0,0,1,.59.85.88.88,0,0,1-.48.84,3.56,3.56,0,0,1-2.06.63,3.41,3.41,0,0,1-2-.59c-1.13-.71-1.7-2-1.7-3.83a4.32,4.32,0,0,1,1.44-3.54A3.27,3.27,0,0,1,23.49,117.55Z" style="fill:#3a3939"/><path d="M29.64,125.36a1,1,0,0,1-.07.37.91.91,0,0,1-.89.55,1,1,0,0,1-.4-.07.87.87,0,0,1-.56-.85v-10.1a1.19,1.19,0,0,1,.08-.44.93.93,0,0,1,.88-.55,1,1,0,0,1,.37.07.94.94,0,0,1,.59.92Z" style="fill:#3a3939"/><path d="M33.16,117.77a.85.85,0,0,1,.26.7v8.37a3.22,3.22,0,0,1-.59,2,3,3,0,0,1-2.47.88l-.74-.15a.83.83,0,0,1-.66-.66,1,1,0,0,1,.22-1,1,1,0,0,1,1-.22q.81.18,1.11-.15a1.36,1.36,0,0,0,.14-.73v-8.37a.66.66,0,0,1,.11-.4.88.88,0,0,1,.85-.59A1,1,0,0,1,33.16,117.77Zm0-3.43a1,1,0,0,1,.26.74v.18a.85.85,0,0,1-.48.82.88.88,0,0,1-1,0,.92.92,0,0,1-.52-.82v-.18a.84.84,0,0,1,.11-.41,1,1,0,0,1,.85-.58A1.09,1.09,0,0,1,33.16,114.34Z" style="fill:#3a3939"/><path d="M38.15,117.51a3.9,3.9,0,0,1,1.84.41c.84.46,1.2,1,1.07,1.58a.87.87,0,0,1-.7.74.86.86,0,0,1-.92-.26,1.6,1.6,0,0,0-1.66-.63.18.18,0,0,0-.11,0,1,1,0,0,0-.84.63.7.7,0,0,0,.07.62,2.42,2.42,0,0,0,1.44.26,3.8,3.8,0,0,1,.88.08,2.51,2.51,0,0,1,1.92,1.18,2.22,2.22,0,0,1,.44,1.43,2.31,2.31,0,0,1-1,2,3.28,3.28,0,0,1-.85.44,4.89,4.89,0,0,1-3.46,0,2.46,2.46,0,0,1-1.44-1.4.86.86,0,0,1,.48-1,.84.84,0,0,1,1.07,0,.35.35,0,0,1,.11.07,2.18,2.18,0,0,0,2.21.56,1,1,0,0,0,.85-.48.56.56,0,0,0,0-.56,1.56,1.56,0,0,0-1.18-.36,3.57,3.57,0,0,1-2.69-.74,2.34,2.34,0,0,1-.85-2,2.26,2.26,0,0,1,.48-1.43,3.07,3.07,0,0,1,2.73-1.15Z" style="fill:#3a3939"/><path d="M47.22,122.93h-3.5a1,1,0,0,1-.93-1.55,1.06,1.06,0,0,1,.93-.51h3.5a1,1,0,0,1,0,2.06Z" style="fill:#3a3939"/><path d="M55.91,126.28a.87.87,0,0,1-.74.3.93.93,0,0,1-.88-.63,3.17,3.17,0,0,1-2.5.15,4.65,4.65,0,0,1-.63-.33,3.5,3.5,0,0,1-1.55-2.32,5.21,5.21,0,0,1,.63-4.13,3.16,3.16,0,0,1,2.69-1.4,3,3,0,0,1,1.4.37,3.32,3.32,0,0,1,.62.44,3.8,3.8,0,0,1,1.22,2.73v3.75A1.75,1.75,0,0,1,55.91,126.28ZM52.45,120a1.2,1.2,0,0,0-.89,1,4.51,4.51,0,0,0,0,2.25.63.63,0,0,0,.08.29,1.24,1.24,0,0,0,1,.81,2.16,2.16,0,0,0,.7,0c.49-.2.77-.7.85-1.51a5.55,5.55,0,0,0-.22-2.18,1.29,1.29,0,0,0-1.15-.66A1.25,1.25,0,0,0,52.45,120Z" style="fill:#3a3939"/><path d="M58.82,117.55a1.12,1.12,0,0,1,.74.29,1,1,0,0,1,.29.74v4.2a1.75,1.75,0,0,0,.19.85,1.28,1.28,0,0,0,.63.63,2.38,2.38,0,0,0,.73.11,1.36,1.36,0,0,0,1.26-.56l.11-.18a2.06,2.06,0,0,0,.18-.85v-4.2a.94.94,0,0,1,.52-.88.83.83,0,0,1,1,0,.94.94,0,0,1,.52.88v4.2a3.5,3.5,0,0,1-3.54,3.54A3.24,3.24,0,0,1,58.64,125a2.89,2.89,0,0,1-.33-.48,3.62,3.62,0,0,1-.44-1.73v-4.2a.92.92,0,0,1,.55-.92A.8.8,0,0,1,58.82,117.55Z" style="fill:#3a3939"/><path d="M73.42,123.59A3.28,3.28,0,0,1,71.79,126a3.21,3.21,0,0,1-1.76.37h-.11a3.1,3.1,0,0,1-1.66-.59l-.3-.18A4.5,4.5,0,0,1,66.52,122a4.18,4.18,0,0,1,1.74-3.79,3.47,3.47,0,0,1,1.77-.56,3.91,3.91,0,0,1,1.58.37v-2.8a1.16,1.16,0,0,1,.07-.44.92.92,0,0,1,.89-.59.84.84,0,0,1,.7.33.9.9,0,0,1,.29.7v7.11A5.73,5.73,0,0,1,73.42,123.59Zm-1.88-3.17a1.46,1.46,0,0,0-.67-.66,3.18,3.18,0,0,0-.84-.22,1.57,1.57,0,0,0-.74.26,2.46,2.46,0,0,0-.81,2.17,2.89,2.89,0,0,0,.81,2.14,3.09,3.09,0,0,0,.74.29h.14a1,1,0,0,0,.7-.18c.52-.22.76-.86.74-1.92v-1.18A3.52,3.52,0,0,0,71.54,120.42Z" style="fill:#3a3939"/><path d="M77,114.23a1.07,1.07,0,0,1,.33.78v.14a.93.93,0,0,1-.48.85.91.91,0,0,1-1,0,.93.93,0,0,1-.48-.85V115a.74.74,0,0,1,.08-.34.89.89,0,0,1,.81-.66A.87.87,0,0,1,77,114.23Zm0,3.61a1,1,0,0,1,.3.7v6.78a.93.93,0,0,1-.48.85.91.91,0,0,1-1,0,.93.93,0,0,1-.48-.85v-6.78a.8.8,0,0,1,.11-.4.84.84,0,0,1,.85-.59A.89.89,0,0,1,77.06,117.84Z" style="fill:#3a3939"/><path d="M84.73,118.18a4.4,4.4,0,0,1,1.66,3.75,4.24,4.24,0,0,1-1.66,3.8,3.81,3.81,0,0,1-2.07.59,3.73,3.73,0,0,1-2.28-.74A4.4,4.4,0,0,1,79,121.93a4.15,4.15,0,0,1,1.65-3.72,3.42,3.42,0,0,1,2-.62A3.59,3.59,0,0,1,84.73,118.18Zm-2.07,6.22c1.21,0,1.81-.82,1.81-2.47s-.6-2.39-1.81-2.39a1.69,1.69,0,0,0-.92.29,2.33,2.33,0,0,0-.81,2.1v.15C80.93,123.63,81.51,124.4,82.66,124.4Z" style="fill:#3a3939"/><path d="M86.16,52.69a11.31,11.31,0,0,0-10.1.28A18.37,18.37,0,0,0,70,59.55c-.63,1.08-1.22,2.2-1.8,3.28-23.73-9.11-33.1-23.62-34.58-26.14a4.13,4.13,0,0,0,1.26-1.45,5,5,0,0,0-.18-4.14l-1.2-2.23c-.74-1.36-1.48-2.74-2.18-4.07-.25-.48-.47-1-.68-1.51-.92-2.17-2-4.64-5.6-4.12h0a12.07,12.07,0,0,0-3.51,1.33,5.88,5.88,0,0,0-2.09,1.95c-1.3,2.1-1.1,4.91.63,8.61a23.28,23.28,0,0,0,3.73,6.24l.42.49a5.12,5.12,0,0,0,2.08,1.7,5.35,5.35,0,0,0,2.51.31l0,0c.9,1.06,1.8,2.25,2.66,3.41s1.88,2.48,2.84,3.61c1.4,1.63,2.83,3.19,4.36,4.75,1,1,2,1.91,3,2.82a66.64,66.64,0,0,0,11.56,7.73C56,63.69,59,65.07,61.87,66.41c1.11.51,2.21,1,3.31,1.56a81.1,81.1,0,0,1-7.45,9.59c-5.36,5.91-12.67,12.89-21.84,14.63a2.3,2.3,0,0,0-.13-.5,2.82,2.82,0,0,0-2.29-1.58,15.17,15.17,0,0,0-6.21.46l-.62.13a19.85,19.85,0,0,0-5.11,1.56,7.33,7.33,0,0,0-3.18,3.15,6.53,6.53,0,0,0-.66,3.91,5.69,5.69,0,0,0,1,2.59A5.84,5.84,0,0,0,21,103.7a9.61,9.61,0,0,0,4.17.76h.17a21.18,21.18,0,0,0,6.37-.93,13.88,13.88,0,0,0,5.57-3.32,3.81,3.81,0,0,0,.82-1.1,1.77,1.77,0,0,0,.1-1.22A62.44,62.44,0,0,0,58.91,85,78.26,78.26,0,0,0,71.79,69.46c2,.36,8.32.51,10.92-.52a11.38,11.38,0,0,0,6.44-7C90.25,58.78,89.43,54.44,86.16,52.69ZM28.34,38.84a4.3,4.3,0,0,1-1.73-.26,4.25,4.25,0,0,1-1.69-1.42c-.15-.18-.3-.36-.46-.53a22.76,22.76,0,0,1-3.57-6c-1.56-3.35-1.78-5.84-.67-7.63A4.88,4.88,0,0,1,22,21.37a11.36,11.36,0,0,1,3.19-1.21c2.88-.4,3.61,1.33,4.53,3.52.22.53.45,1.07.71,1.58.7,1.34,1.45,2.72,2.19,4.08.4.75.81,1.5,1.2,2.24a4,4,0,0,1,.15,3.24,3.63,3.63,0,0,1-1.18,1.24A5.4,5.4,0,0,0,28.34,38.84Zm34,26.66c-2.85-1.33-5.8-2.71-8.61-4.23A66.08,66.08,0,0,1,42.3,53.66c-1-.89-2-1.82-3-2.76-1.52-1.55-2.93-3.09-4.32-4.7-.94-1.11-1.89-2.36-2.8-3.57s-1.78-2.37-2.7-3.45a2.11,2.11,0,0,0-.15-.15,4.56,4.56,0,0,1,3.28-2c1.3,2.26,10.72,17.27,35,26.64-.62,1.16-1.25,2.31-2,3.42ZM37.13,98.71a2.89,2.89,0,0,1-.61.8,12.71,12.71,0,0,1-5.17,3.06,20.12,20.12,0,0,1-6.06.89,9,9,0,0,1-3.9-.66,4.93,4.93,0,0,1-1.86-1.48,4.76,4.76,0,0,1-.85-2.14,5.5,5.5,0,0,1,.56-3.31A6.32,6.32,0,0,1,22,93.15a19.34,19.34,0,0,1,4.87-1.48l.62-.13a21.34,21.34,0,0,1,4.24-.6,7.53,7.53,0,0,1,1.57.15c.47.09,1.31.35,1.55,1a2.43,2.43,0,0,1,0,1.23c0,.12,0,.24,0,.36a3.91,3.91,0,0,0,1.55,3.66C37.11,97.87,37.38,98.14,37.13,98.71ZM88.2,61.64A10.34,10.34,0,0,1,82.34,68c-2.64,1-8,.69-9.94.51.62-1,1.24-2,1.83-3.1a15.73,15.73,0,0,0,1.73.06,12.37,12.37,0,0,0,5.78-1.06c1.74-.85,3.68-3.55,3.49-5.62a2.31,2.31,0,0,0-.91-1.64,4,4,0,0,0-2.9-.74c-3.75.5-5.69,4.12-7.25,7-.21.39-.41.77-.61,1.13A78.88,78.88,0,0,1,58.23,84.24,61.47,61.47,0,0,1,37.58,97a5.77,5.77,0,0,0-.69-.57,2.91,2.91,0,0,1-1.12-2.71l0-.33,0-.21c9.57-1.72,17.12-8.91,22.62-15a82.81,82.81,0,0,0,8-10.34c1-1.48,1.79-3,2.59-4.57.57-1.08,1.17-2.19,1.79-3.26,1-1.67,3-4.69,5.73-6.22a10.26,10.26,0,0,1,9.14-.27C88.45,55.05,89.14,58.91,88.2,61.64ZM74.76,64.46c.1-.17.19-.35.29-.54,1.53-2.85,3.26-6.08,6.5-6.51a3.05,3.05,0,0,1,2.15.53,1.3,1.3,0,0,1,.53,1c.16,1.62-1.51,3.94-2.93,4.63a11.41,11.41,0,0,1-5.36,1C75.53,64.49,75.13,64.48,74.76,64.46Z" style="fill:#00aeef"/></svg>